<svg width="32" height="32" viewBox="0 0 32 32" fill="none" xmlns="http://www.w3.org/2000/svg">
<path d="M15.085 13.2227C16.1745 13.2227 17.2198 13.6553 17.9902 14.4258C18.7607 15.1962 19.1934 16.2415 19.1934 17.3311C19.1934 18.4206 18.7607 19.4659 17.9902 20.2363C17.2198 21.0068 16.1745 21.4395 15.085 21.4395C13.9954 21.4394 12.9501 21.0068 12.1797 20.2363C11.4092 19.4659 10.9766 18.4206 10.9766 17.3311C10.9766 16.2415 11.4092 15.1962 12.1797 14.4258C12.9501 13.6553 13.9954 13.2227 15.085 13.2227Z" fill="white"/>
<path fill-rule="evenodd" clip-rule="evenodd" d="M24 4C26.2091 4 28 5.79086 28 8V24C28 26.2091 26.2091 28 24 28H8C5.79086 28 4 26.2091 4 24V8C4 5.79086 5.79086 4 8 4H24ZM15.083 11.248C13.4696 11.248 11.9221 11.8884 10.7812 13.0293C9.64039 14.1702 9 15.7176 9 17.3311C9 18.9445 9.64039 20.4919 10.7812 21.6328C11.9221 22.7737 13.4696 23.4141 15.083 23.4141C16.6964 23.4141 18.2439 22.7737 19.3848 21.6328C20.5256 20.4919 21.166 18.9445 21.166 17.3311C21.166 15.7176 20.5256 14.1702 19.3848 13.0293C18.2439 11.8884 16.6964 11.248 15.083 11.248ZM21.9385 9C21.5458 9.00007 21.1693 9.156 20.8916 9.43359C20.6138 9.7114 20.457 10.0886 20.457 10.4814C20.4571 10.8742 20.6139 11.2506 20.8916 11.5283C21.1693 11.8061 21.5457 11.9628 21.9385 11.9629C22.3314 11.9629 22.7085 11.8061 22.9863 11.5283C23.2639 11.2506 23.4199 10.8741 23.4199 10.4814C23.4199 10.0886 23.2641 9.7114 22.9863 9.43359C22.7085 9.15581 22.3313 9 21.9385 9Z" fill="white"/>
</svg>
