<svg width="367" height="91" viewBox="0 0 367 91" fill="none" xmlns="http://www.w3.org/2000/svg">
<path d="M343.94 90.452C339.036 90.452 334.68 89.4517 330.872 87.4512C327.129 85.3861 324.193 82.4821 322.063 78.7392C319.998 74.9317 318.966 70.4144 318.966 65.1872C318.966 56.6688 321.063 50.0864 325.258 45.44C329.517 40.7291 335.583 38.3736 343.456 38.3736C348.877 38.3736 353.233 39.5352 356.524 41.8584C359.88 44.1816 362.332 47.5696 363.881 52.0224C365.43 56.4752 366.172 61.896 366.107 68.2848H328.839L327.291 59.0888H354.201L352.071 63.6384C352.007 58.4112 351.265 54.7328 349.845 52.6032C348.425 50.4736 346.102 49.4088 342.875 49.4088C341.069 49.4088 339.423 49.8605 337.939 50.764C336.519 51.6675 335.39 53.184 334.551 55.3136C333.776 57.3787 333.389 60.2504 333.389 63.9288C333.389 68.5752 334.486 72.1568 336.68 74.6736C338.939 77.1904 342.521 78.4488 347.425 78.4488C349.232 78.4488 351.007 78.2552 352.749 77.868C354.556 77.4163 356.234 76.9 357.783 76.3192C359.331 75.7384 360.654 75.2221 361.751 74.7704V87.1608C359.428 88.1288 356.815 88.9032 353.911 89.484C351.071 90.1293 347.748 90.452 343.94 90.452Z" fill="white"/>
<path d="M282.07 89V45.1496C282.973 44.3752 284.587 43.504 286.91 42.536C289.233 41.5035 291.879 40.6 294.848 39.8256C297.881 38.9867 300.914 38.5672 303.947 38.5672C306.98 38.5672 309.368 38.7931 311.11 39.2448C312.852 39.6965 314.175 40.2773 315.079 40.9872V51.5384C313.982 51.2803 312.594 51.0867 310.916 50.9576C309.238 50.8285 307.496 50.764 305.689 50.764C303.882 50.6995 302.172 50.6995 300.559 50.764C298.945 50.8285 297.59 50.9576 296.493 51.1512V89H282.07Z" fill="white"/>
<path d="M249.882 90.452C244.977 90.452 240.621 89.4517 236.814 87.4512C233.071 85.3861 230.134 82.4821 228.005 78.7392C225.94 74.9317 224.907 70.4144 224.907 65.1872C224.907 56.6688 227.005 50.0864 231.199 45.44C235.458 40.7291 241.525 38.3736 249.398 38.3736C254.818 38.3736 259.174 39.5352 262.466 41.8584C265.821 44.1816 268.274 47.5696 269.822 52.0224C271.371 56.4752 272.113 61.896 272.049 68.2848H234.781L233.232 59.0888H260.142L258.013 63.6384C257.948 58.4112 257.206 54.7328 255.786 52.6032C254.367 50.4736 252.044 49.4088 248.817 49.4088C247.01 49.4088 245.364 49.8605 243.88 50.764C242.46 51.6675 241.331 53.184 240.492 55.3136C239.718 57.3787 239.33 60.2504 239.33 63.9288C239.33 68.5752 240.428 72.1568 242.622 74.6736C244.88 77.1904 248.462 78.4488 253.366 78.4488C255.173 78.4488 256.948 78.2552 258.69 77.868C260.497 77.4163 262.175 76.9 263.724 76.3192C265.273 75.7384 266.596 75.2221 267.693 74.7704V87.1608C265.37 88.1288 262.756 88.9032 259.852 89.484C257.013 90.1293 253.689 90.452 249.882 90.452Z" fill="white"/>
<path d="M200.307 89V40.6968H214.73L214.827 89H200.307ZM200.017 33.34V22.208H214.924V33.34H200.017Z" fill="white"/>
<path d="M156.842 56.088V89H142.419V58.992C142.419 57.7659 142.226 56.6365 141.838 55.604C141.516 54.5715 141 53.7003 140.29 52.9904C139.58 52.216 138.612 51.6352 137.386 51.248C136.16 50.7963 134.675 50.5704 132.933 50.5704C131.449 50.5704 130.061 50.764 128.77 51.1512C127.544 51.4739 126.544 51.8288 125.77 52.216V89H111.346V44.1816C112.573 43.5363 114.186 42.8909 116.186 42.2456C118.187 41.5357 120.381 40.9227 122.769 40.4064C125.157 39.8901 127.544 39.4707 129.932 39.148C132.384 38.8253 134.643 38.664 136.708 38.664C141.096 38.664 144.775 39.2448 147.743 40.4064C150.776 41.5035 153.035 43.3104 154.519 45.8272C156.068 48.344 156.842 51.7643 156.842 56.088ZM142.032 47.4728C144.033 45.7304 146.453 44.2139 149.292 42.9232C152.132 41.568 155.132 40.5355 158.294 39.8256C161.457 39.0512 164.393 38.664 167.103 38.664C171.492 38.664 175.17 39.2448 178.138 40.4064C181.172 41.5035 183.43 43.3104 184.914 45.8272C186.463 48.344 187.238 51.7643 187.238 56.088V89H172.814V58.992C172.814 57.7659 172.621 56.6365 172.234 55.604C171.911 54.5715 171.395 53.7003 170.685 52.9904C169.975 52.216 169.007 51.6352 167.781 51.248C166.555 50.7963 165.07 50.5704 163.328 50.5704C161.844 50.5704 160.456 50.7963 159.166 51.248C157.94 51.6352 156.939 52.1515 156.165 52.7968L142.032 47.4728Z" fill="white"/>
<path d="M76.2482 90.452C71.7308 90.452 67.7298 89.7421 64.245 88.3224C60.7602 86.9027 58.0498 84.7408 56.1138 81.8368C54.1778 78.8683 53.2098 75.0285 53.2098 70.3176V40.0192H67.633V69.156C67.633 72.2536 68.3106 74.5768 69.6658 76.1256C71.0855 77.6099 73.3119 78.352 76.345 78.352C79.4426 78.352 81.669 77.6099 83.0242 76.1256C84.3794 74.5768 85.057 72.2536 85.057 69.156V40.0192H98.609V70.3176C98.609 77.2872 96.6084 82.3853 92.6074 85.612C88.6063 88.8387 83.1532 90.452 76.2482 90.452Z" fill="white"/>
<path d="M0 89V24.4344H15.6816V76.7064H43.7536V89H0Z" fill="white"/>
<path d="M213.127 0L243.768 34H266.127L253.429 0H213.127Z" fill="#98FF81"/>
</svg>
