<svg width="32" height="32" viewBox="0 0 32 32" fill="none" xmlns="http://www.w3.org/2000/svg">
<path d="M24.5714 4H7.42857C5.5375 4 4 5.5375 4 7.42857V24.5714C4 26.4625 5.5375 28 7.42857 28H11.3179L11.2 27.9571C10.9107 25.3804 11.0339 24.8768 12.0411 20.7411C12.25 19.8839 12.4964 18.8661 12.7857 17.6393C12.7857 17.6393 12.3946 16.8464 12.3946 15.6839C12.3946 11.8964 16.4393 11.5054 16.4393 14.3446C16.4393 15.0679 16.15 16.0107 15.8393 17.0125C15.6625 17.5804 15.4857 18.1643 15.3518 18.7268C15.0464 20.0393 16.0107 21.1054 17.3018 21.1054C19.6429 21.1054 21.4375 18.6411 21.4375 15.0839C21.4375 11.9339 19.1714 9.73214 15.9411 9.73214C12.1964 9.73214 10 12.5393 10 15.4429C10 16.5732 10.4393 17.7839 10.9804 18.4429C11.0875 18.5714 11.1036 18.6839 11.0714 18.8179C11.0125 19.0696 10.9054 19.5089 10.8196 19.8464C10.7661 20.0607 10.7232 20.2375 10.7071 20.3071C10.6482 20.5482 10.5196 20.6018 10.2679 20.4839C8.62857 19.7179 7.6 17.3179 7.6 15.3893C7.6 11.2375 10.6107 7.42857 16.2893 7.42857C20.8536 7.42857 24.4 10.6804 24.4 15.025C24.4 19.5571 21.5446 23.2054 17.575 23.2054C16.2411 23.2054 14.9875 22.5143 14.5589 21.6946C14.5589 21.6946 13.9 24.2071 13.7393 24.8232C13.4714 25.8571 12.7964 27.1214 12.2714 28H24.5714C26.4625 28 28 26.4625 28 24.5714V7.42857C28 5.5375 26.4625 4 24.5714 4Z" fill="white"/>
</svg>
