<svg width="32" height="32" viewBox="0 0 32 32" fill="none" xmlns="http://www.w3.org/2000/svg">
<path d="M7.42857 4C5.5375 4 4 5.5375 4 7.42857V24.5714C4 26.4625 5.5375 28 7.42857 28H24.5714C26.4625 28 28 26.4625 28 24.5714V7.42857C28 5.5375 26.4625 4 24.5714 4H7.42857ZM23.3446 8.5L17.7839 14.8536L24.325 23.5H19.2036L15.1964 18.2554L10.6054 23.5H8.06071L14.0071 16.7018L7.73393 8.5H12.9839L16.6107 13.2946L20.8 8.5H23.3446ZM21.3196 21.9786L12.2179 9.94107H10.7018L19.9054 21.9786H21.3143H21.3196Z" fill="white"/>
</svg>
